<?xml version="1.0" encoding="utf-8" ?><!-- created by svgstack.com | Attribution is required. --><svg xmlns="http://www.w3.org/2000/svg" xmlns:xlink="http://www.w3.org/1999/xlink" width="1024" height="1024"><path fill="#242121" transform="scale(2 2)" d="M249.59 73.0014C260.143 72.593 270.47 73.5115 280.756 75.9985C351.872 93.1939 385.691 177.733 343.313 237.479C338.671 244.023 333.225 249.915 327.428 255.444C384.43 267.648 427.4 316.667 440.566 372.374C442.624 381.079 444.325 391.212 444.377 400.131C444.471 416.1 431.958 431.066 416.292 434.042C411.005 435.046 405.124 434.521 399.743 434.515L262.875 434.5L115.307 434.508C109.601 434.507 103.412 435.004 97.7856 434.203C83.4321 432.16 69.5328 419.481 67.5205 404.934C66.7773 399.561 67.5849 393.686 68.1519 388.312C74.1027 331.9 111.517 283.869 163.42 261.913C169.955 259.148 176.995 256.417 184.05 255.444C178.761 249.694 173.33 243.931 168.764 237.58C141.772 200.031 145.72 146.181 174.86 111.057C194.328 87.5918 219.497 75.7765 249.59 73.0014ZM213.499 275.85C153.27 281.29 102.582 325.452 94.1234 386.452C90.1878 414.832 101.668 409.512 124.905 409.508L306.375 409.507L399.751 409.514C420.755 409.519 421.381 404.827 417.891 383.951C408.925 330.334 363.525 285.951 310.014 277.466C292.98 274.765 296.979 275.834 281.722 279.908C263.899 284.667 243.885 284.063 226.36 278.405C221.809 276.936 218.311 275.488 213.499 275.85ZM252.427 98.4825C210.412 99.4769 175.348 138.055 176.516 179.691C177.749 223.625 215.142 260.041 259.273 257.43C304.316 254.752 338.118 218.747 335.403 173.191C332.902 131.227 295.59 95.7586 253.043 98.4409L252.427 98.4825Z"/></svg> 